<?xml version="1.0" encoding="UTF-8"?>
<svg width="180" height="180" viewBox="0 0 180 180" fill="none" xmlns="http://www.w3.org/2000/svg">
  <!-- Background -->
  <rect width="180" height="180" rx="40" fill="#0057FF"/>
  
  <!-- Motorcycle icon -->
  <path d="M135.5 92.5C127.767 92.5 121.5 98.7675 121.5 106.5C121.5 114.232 127.767 120.5 135.5 120.5C143.232 120.5 149.5 114.232 149.5 106.5C149.5 98.7675 143.232 92.5 135.5 92.5ZM45.5 92.5C37.7675 92.5 31.5 98.7675 31.5 106.5C31.5 114.232 37.7675 120.5 45.5 120.5C53.2325 120.5 59.5 114.232 59.5 106.5C59.5 98.7675 53.2325 92.5 45.5 92.5ZM135.125 83.8325C137.245 83.8325 139.177 84.57 140.822 86.045C142.468 87.52 143.48 89.315 143.858 91.43L130.322 91.43L130.322 83.8325L135.125 83.8325ZM95.5 53.5L107.465 65.465L99.6925 73.2375L87.7275 61.2725L95.5 53.5ZM68 72.5L83.5 88L77.5 94L62 78.5L68 72.5ZM45.5 83.8325L59.3825 83.8325L70.9675 72.2475L107.48 72.2475L119.065 83.8325L124.815 83.8325L124.815 91.43L106.997 91.43C105.823 95.1225 103.555 98.2275 100.192 100.745C96.83 103.262 93.0175 104.522 88.755 104.522C84.4925 104.522 80.68 103.262 77.3175 100.745C73.955 98.2275 71.6875 95.1225 70.5125 91.43L65.0075 91.43L65.0075 83.8325L45.5 83.8325Z" fill="white"/>
  
  <!-- Speed lines -->
  <path d="M45 50L135 50" stroke="white" stroke-width="6" stroke-linecap="round"/>
  <path d="M55 65L125 65" stroke="white" stroke-width="6" stroke-linecap="round"/>
  <path d="M75 130L105 130" stroke="white" stroke-width="6" stroke-linecap="round"/>
  <path d="M65 145L115 145" stroke="white" stroke-width="6" stroke-linecap="round"/>
</svg>